<svg width="15" height="17" viewBox="0 0 15 17" fill="none" xmlns="http://www.w3.org/2000/svg">
<path d="M7.51674 4.35079C5.37388 4.35079 3.66629 6.28824 3.66629 8.63553C3.66629 11.0201 5.37388 12.9203 7.51674 12.9203C9.62612 12.9203 11.3672 11.0201 11.3672 8.63553C11.3672 6.28824 9.62612 4.35079 7.51674 4.35079ZM7.51674 11.4299C6.14397 11.4299 5.00558 10.2004 5.00558 8.63553C5.00558 7.10793 6.11049 5.87839 7.51674 5.87839C8.88951 5.87839 9.99442 7.10793 9.99442 8.63553C9.99442 10.2004 8.88951 11.4299 7.51674 11.4299ZM12.4051 4.20175C12.4051 3.64288 12.0033 3.19577 11.5012 3.19577C10.9989 3.19577 10.5971 3.64288 10.5971 4.20175C10.5971 4.76063 10.9989 5.20774 11.5012 5.20774C12.0033 5.20774 12.4051 4.76063 12.4051 4.20175ZM14.9498 5.20774C14.8828 3.86643 14.615 2.67415 13.7444 1.70543C12.8739 0.736702 11.8025 0.438633 10.5971 0.364115C9.35826 0.289598 5.64174 0.289598 4.4029 0.364115C3.19754 0.438633 2.1596 0.736702 1.25558 1.70543C0.385045 2.67415 0.117187 3.86643 0.0502232 5.20774C-0.0167411 6.58631 -0.0167411 10.722 0.0502232 12.1006C0.117187 13.4418 0.385045 14.5969 1.25558 15.603C2.1596 16.5716 3.19754 16.8696 4.4029 16.9443C5.64174 17.0187 9.35826 17.0187 10.5971 16.9443C11.8025 16.8696 12.8739 16.5716 13.7444 15.603C14.615 14.5969 14.8828 13.4418 14.9498 12.1006C15.0167 10.722 15.0167 6.58631 14.9498 5.20774ZM13.3426 13.5537C13.1083 14.2988 12.5726 14.8578 11.9364 15.1559C10.9319 15.603 8.58817 15.4911 7.51674 15.4911C6.41183 15.4911 4.06808 15.603 3.0971 15.1559C2.42746 14.8578 1.92522 14.2988 1.65737 13.5537C1.25558 12.4732 1.35603 9.86507 1.35603 8.63553C1.35603 7.44326 1.25558 4.83515 1.65737 3.71739C1.92522 3.00948 2.42746 2.4506 3.0971 2.15253C4.06808 1.70543 6.41183 1.8172 7.51674 1.8172C8.58817 1.8172 10.9319 1.70543 11.9364 2.15253C12.5726 2.41334 13.0748 3.00948 13.3426 3.71739C13.7444 4.83515 13.644 7.44326 13.644 8.63553C13.644 9.86507 13.7444 12.4732 13.3426 13.5537Z" fill="#352A2A"/>
</svg>
