<svg width="15" height="17" viewBox="0 0 15 17" fill="none" xmlns="http://www.w3.org/2000/svg">
<path d="M15 8.65415C15 4.0437 11.6431 0.308228 7.5 0.308228C3.35685 0.308228 0 4.0437 0 8.65415C0 12.2214 1.96573 15.2165 4.74798 16.428C4.6875 15.7886 4.62702 14.779 4.77823 14.0386C4.92944 13.3992 5.65524 9.89931 5.65524 9.89931C5.65524 9.89931 5.44355 9.39451 5.44355 8.65415C5.44355 7.50995 6.04839 6.63497 6.80444 6.63497C7.43952 6.63497 7.74194 7.17342 7.74194 7.81283C7.74194 8.51954 7.31855 9.59643 7.10685 10.606C6.95564 11.4137 7.5 12.0867 8.22581 12.0867C9.55645 12.0867 10.5847 10.5387 10.5847 8.28397C10.5847 6.26479 9.28427 4.88502 7.46976 4.88502C5.32258 4.88502 4.08266 6.66863 4.08266 8.48588C4.08266 9.22625 4.3246 10.0003 4.62702 10.4041C4.6875 10.4714 4.6875 10.5724 4.6875 10.6397C4.62702 10.9089 4.47581 11.481 4.47581 11.582C4.44556 11.7502 4.35484 11.7838 4.20363 11.7166C3.26613 11.2118 2.69153 9.69739 2.69153 8.45223C2.69153 5.8273 4.41532 3.40429 7.65121 3.40429C10.2521 3.40429 12.2782 5.49077 12.2782 8.25031C12.2782 11.1108 10.6452 13.4329 8.37702 13.4329C7.62097 13.4329 6.89516 12.9953 6.65323 12.4569C6.65323 12.4569 6.29032 14.0722 6.1996 14.4424C6.01814 15.1828 5.56452 16.0914 5.2621 16.6298C5.95766 16.8991 6.71371 17.0001 7.5 17.0001C11.6431 17.0001 15 13.2645 15 8.65415Z" fill="#352A2A"/>
</svg>
